<svg xmlns="http://www.w3.org/2000/svg" viewBox="0 0 512 512" width="512" height="512">
  <defs>
    <linearGradient id="bgGrad" x1="0%" y1="0%" x2="100%" y2="100%">
      <stop offset="0%" stop-color="#1e40af"/>
      <stop offset="50%" stop-color="#0891b2"/>
      <stop offset="100%" stop-color="#0d9488"/>
    </linearGradient>
    <linearGradient id="shine" x1="0%" y1="0%" x2="100%" y2="100%">
      <stop offset="0%" stop-color="rgba(255,255,255,0.25)"/>
      <stop offset="100%" stop-color="rgba(255,255,255,0)"/>
    </linearGradient>
    <filter id="glow">
      <feGaussianBlur stdDeviation="6" result="blur"/>
      <feMerge><feMergeNode in="blur"/><feMergeNode in="SourceGraphic"/></feMerge>
    </filter>
  </defs>
  <rect width="512" height="512" rx="92" ry="92" fill="url(#bgGrad)"/>
  <rect width="512" height="512" rx="92" ry="92" fill="url(#shine)"/>
  <rect x="4" y="4" width="504" height="504" rx="88" ry="88" fill="none" stroke="rgba(255,255,255,0.15)" stroke-width="2"/>
  <g stroke="white" stroke-width="22" fill="none" stroke-linecap="round" filter="url(#glow)">
    <path d="M 196 220 A 80 80 0 0 1 316 220"/>
    <path d="M 156 190 A 130 130 0 0 1 356 190"/>
    <path d="M 116 160 A 180 180 0 0 1 396 160"/>
  </g>
  <circle cx="256" cy="220" r="22" fill="white" filter="url(#glow)"/>
  <g stroke="white" stroke-width="16" fill="none" stroke-linecap="round" stroke-linejoin="round" filter="url(#glow)">
    <line x1="256" y1="360" x2="256" y2="300"/>
    <polyline points="220,328 256,292 292,328"/>
    <line x1="256" y1="400" x2="256" y2="450"/>
    <polyline points="220,432 256,458 292,432"/>
  </g>
</svg>
